<svg width="14" height="8" viewBox="0 0 14 8" fill="none" xmlns="http://www.w3.org/2000/svg">
<path d="M13.3716 0.266602C13.1966 0.0999355 12.9894 0.0166021 12.75 0.0166021C12.511 0.0166021 12.3041 0.0999354 12.1291 0.266602L7.00156 5.14994L1.85656 0.249935C1.69323 0.0943793 1.48906 0.0166016 1.24406 0.0166016C0.999063 0.0166016 0.789062 0.0999349 0.614062 0.266602C0.439062 0.433268 0.351562 0.630602 0.351562 0.858602C0.351562 1.08616 0.439062 1.28327 0.614062 1.44993L6.51156 7.04994C6.58156 7.1166 6.6574 7.16394 6.73906 7.19194C6.82073 7.21949 6.90823 7.23327 7.00156 7.23327C7.0949 7.23327 7.1824 7.21949 7.26406 7.19194C7.34573 7.16394 7.42156 7.1166 7.49156 7.04994L13.3891 1.43327C13.5524 1.27771 13.6341 1.08616 13.6341 0.858602C13.6341 0.630602 13.5466 0.433269 13.3716 0.266602Z" fill="#272523"/>
</svg>
