<svg width="130" height="130" viewBox="0 0 130 130" fill="none" xmlns="http://www.w3.org/2000/svg">
<path d="M65 1.44077L82.087 47.6176L82.1668 47.8332L82.3824 47.913L128.559 65L82.3824 82.087L82.1668 82.1668L82.087 82.3824L65 128.559L47.913 82.3824L47.8332 82.1668L47.6176 82.087L1.44077 65L47.6176 47.913L47.8332 47.8332L47.913 47.6176L65 1.44077Z" fill="#272523" stroke="#FFF4E6"/>
<path d="M65.6516 30.0407L75.1895 55.8166L75.2693 56.0323L75.4849 56.112L101.261 65.65L75.4849 75.1879L75.2693 75.2677L75.1895 75.4833L65.6516 101.259L56.1136 75.4833L56.0338 75.2677L55.8182 75.1879L30.0423 65.65L55.8182 56.112L56.0338 56.0323L56.1136 55.8166L65.6516 30.0407Z" fill="#272523" stroke="#FFF4E6"/>
</svg>
