<svg width="215" height="215" viewBox="0 0 215 215" fill="none" xmlns="http://www.w3.org/2000/svg">
<path d="M124.808 55.5539L169.69 21.9033L151.555 74.9867L151.325 75.6589L152.036 75.6482L208.125 74.805L162.252 107.091L161.671 107.5L162.252 107.909L208.125 140.195L152.036 139.352L151.325 139.341L151.555 140.013L169.69 193.097L124.808 159.446L124.24 159.02L124.031 159.699L107.5 213.303L90.9695 159.699L90.7601 159.02L90.1918 159.446L45.3104 193.097L63.4449 140.013L63.6745 139.341L62.9642 139.352L6.87509 140.195L52.7478 107.909L53.3287 107.5L52.7478 107.091L6.87511 74.805L62.9642 75.6482L63.6745 75.6589L63.4449 74.9867L45.3104 21.9034L90.1918 55.5539L90.7601 55.9801L90.9695 55.3012L107.5 1.69673L124.031 55.3012L124.24 55.9801L124.808 55.5539Z" fill="#272523" stroke="#FFF4E6"/>
<path d="M118.57 79.1385L143.595 60.3759L133.484 89.9737L133.254 90.6459L133.964 90.6353L165.238 90.1651L139.661 108.167L139.08 108.576L139.661 108.985L165.238 126.986L133.964 126.516L133.254 126.506L133.484 127.178L143.595 156.776L118.57 138.013L118.002 137.587L117.793 138.266L108.576 168.154L99.3589 138.266L99.1495 137.587L98.5811 138.013L73.5566 156.776L83.6678 127.178L83.8975 126.506L83.1871 126.516L51.9135 126.986L77.4908 108.985L78.0717 108.576L77.4908 108.167L51.9135 90.1651L83.1871 90.6353L83.8975 90.6459L83.6678 89.9737L73.5566 60.3759L98.5811 79.1385L99.1495 79.5647L99.3589 78.8858L108.576 48.9975L117.793 78.8858L118.002 79.5647L118.57 79.1385Z" fill="#272523" stroke="#FFF4E6"/>
</svg>
