<svg width="216" height="216" viewBox="0 0 216 216" fill="none" xmlns="http://www.w3.org/2000/svg">
<path d="M108 0L111.97 82.9325L141.374 5.2859L119.522 85.3863L171.481 20.6262L125.946 90.0536L195.374 44.5192L130.614 96.4777L210.714 74.6262L133.068 104.03L216 108L133.068 111.97L210.714 141.374L130.614 119.522L195.374 171.481L125.946 125.946L171.481 195.374L119.522 130.614L141.374 210.714L111.97 133.068L108 216L104.03 133.068L74.6262 210.714L96.4777 130.614L44.5192 195.374L90.0536 125.946L20.6262 171.481L85.3863 119.522L5.2859 141.374L82.9325 111.97L0 108L82.9325 104.03L5.2859 74.6262L85.3863 96.4777L20.6262 44.5192L90.0536 90.0536L44.5192 20.6262L96.4777 85.3863L74.6262 5.2859L104.03 82.9325L108 0Z" fill="#FFF4E6"/>
<path d="M109.509 93.5925L110.476 93.7458L124.497 56.5441L113.973 94.882L114.846 95.3267L139.676 64.2784L117.82 97.488L118.513 98.1805L151.722 76.3249L120.674 101.155L121.119 102.028L159.457 91.5043L122.255 105.525L122.408 106.492L162.122 108.331L122.408 110.169L122.255 111.137L159.457 125.157L121.119 114.634L120.674 115.506L151.722 140.337L118.513 118.481L117.82 119.174L139.676 152.383L114.846 121.335L113.973 121.78L124.497 160.118L110.476 122.916L109.509 123.069L107.67 162.783L105.832 123.069L104.864 122.916L90.8435 160.118L101.367 121.78L100.494 121.335L75.6641 152.383L97.5197 119.174L96.8272 118.481L63.6176 140.337L94.6659 115.506L94.2212 114.634L55.8833 125.157L93.085 111.137L92.9318 110.169L53.2183 108.331L92.9318 106.492L93.085 105.525L55.8833 91.5043L94.2212 102.028L94.6659 101.155L63.6176 76.3249L96.8272 98.1805L97.5197 97.488L75.6641 64.2784L100.494 95.3267L101.367 94.882L90.8435 56.5441L104.864 93.7458L105.832 93.5925L107.67 53.8791L109.509 93.5925Z" fill="#FFF4E6" stroke="#272523"/>
</svg>
