<svg width="95" height="95" viewBox="0 0 95 95" fill="none" xmlns="http://www.w3.org/2000/svg">
<path d="M47.5 0L52.9532 34.3347L81.0876 13.9124L60.6653 42.0468L95 47.5L60.6653 52.9532L81.0876 81.0876L52.9532 60.6653L47.5 95L42.0468 60.6653L13.9124 81.0876L34.3347 52.9532L0 47.5L34.3347 42.0468L13.9124 13.9124L42.0468 34.3347L47.5 0Z" fill="#FFF4E6"/>
<path d="M50.154 39.7681L50.2818 40.5732L50.9415 40.0943L65.3953 29.6026L54.9035 44.0563L54.4247 44.716L55.2297 44.8438L72.8689 47.6454L55.2297 50.4469L54.4247 50.5748L54.9035 51.2345L65.3953 65.6882L50.9415 55.1965L50.2818 54.7176L50.154 55.5227L47.3524 73.1618L44.5509 55.5227L44.423 54.7176L43.7633 55.1965L29.3096 65.6882L39.8014 51.2345L40.2802 50.5748L39.4751 50.4469L21.836 47.6454L39.4751 44.8438L40.2802 44.716L39.8014 44.0563L29.3096 29.6026L43.7633 40.0943L44.423 40.5732L44.5509 39.7681L47.3524 22.129L50.154 39.7681Z" fill="#FFF4E6" stroke="#272523"/>
</svg>
