<svg width="26" height="26" viewBox="0 0 26 26" fill="none" xmlns="http://www.w3.org/2000/svg">
<g clip-path="url(#clip0_401_40392)">
<circle cx="13" cy="13" r="13" fill="#272523"/>
<path d="M13 0C10.4289 0 7.91543 0.762437 5.77759 2.1909C3.63975 3.61935 1.97351 5.64968 0.989572 8.02512C0.00563267 10.4006 -0.251811 13.0144 0.249797 15.5362C0.751405 18.0579 1.98954 20.3743 3.80762 22.1924C5.6257 24.0105 7.94208 25.2486 10.4638 25.7502C12.9856 26.2518 15.5995 25.9944 17.9749 25.0104C20.3503 24.0265 22.3807 22.3603 23.8091 20.2224C25.2376 18.0846 26 15.5712 26 13C26 9.55219 24.6304 6.24559 22.1924 3.80761C19.7544 1.36964 16.4478 0 13 0V0ZM18.9954 17.0574C18.6909 17.1001 17.2113 17.0574 17.1344 17.0574C16.7518 17.0613 16.3831 16.9144 16.108 16.6486C15.795 16.3475 15.5128 16.0174 15.2134 15.7026C15.123 15.6073 15.0252 15.5192 14.9209 15.4392C14.6763 15.2511 14.4351 15.2938 14.3205 15.5812C14.2311 15.8927 14.1693 16.2116 14.1358 16.5339C14.1334 16.6014 14.1177 16.6676 14.0896 16.729C14.0616 16.7903 14.0217 16.8455 13.9723 16.8914C13.9229 16.9373 13.8649 16.973 13.8017 16.9965C13.7385 17.02 13.6712 17.0308 13.6038 17.0283C13.402 17.0386 13.2001 17.042 13 17.0283C12.2719 17.0254 11.5549 16.8495 10.908 16.5151C10.2094 16.1247 9.60047 15.5921 9.12053 14.9517C8.35228 13.938 7.68864 12.8491 7.13974 11.7017C7.11067 11.6453 6.53422 10.4188 6.52053 10.3607C6.48633 10.2809 6.48373 10.1911 6.51327 10.1094C6.54281 10.0278 6.60227 9.96047 6.67961 9.92105C6.78224 9.88171 8.68264 9.92105 8.71343 9.92105C8.85485 9.91905 8.99318 9.96251 9.10804 10.045C9.22291 10.1276 9.30823 10.2448 9.35145 10.3795C9.70294 11.2776 10.1829 12.12 10.7763 12.8803C10.8596 12.9815 10.9569 13.0702 11.0654 13.1437C11.0934 13.1708 11.128 13.1899 11.1658 13.1992C11.2036 13.2084 11.2432 13.2074 11.2805 13.1962C11.3178 13.1851 11.3514 13.1642 11.378 13.1357C11.4045 13.1072 11.423 13.0722 11.4315 13.0342C11.5068 12.7863 11.551 12.5301 11.5632 12.2713C11.5734 11.7582 11.5632 11.4161 11.5341 10.9029C11.5444 10.728 11.4854 10.5561 11.3698 10.4245C11.2542 10.2929 11.0913 10.2122 10.9166 10.1999C10.7661 10.1742 10.7455 10.0511 10.8499 9.9279C11.05 9.67303 11.3271 9.63197 11.6282 9.61658C12.0832 9.59092 12.5399 9.61658 12.9966 9.61658H13.0958C13.2963 9.61608 13.4963 9.63614 13.6928 9.67645C13.8076 9.69997 13.9118 9.75997 13.9898 9.84751C14.0678 9.93505 14.1154 10.0454 14.1255 10.1622C14.1485 10.2915 14.1588 10.4227 14.1563 10.5539C14.1444 11.115 14.117 11.6743 14.1101 12.2337C14.106 12.4553 14.1261 12.6767 14.17 12.8939C14.2367 13.1916 14.4403 13.2668 14.649 13.0513C14.909 12.7716 15.1475 12.4725 15.3622 12.1567C15.7481 11.5831 16.0661 10.9666 16.3099 10.3196C16.4416 9.98776 16.5425 9.91421 16.9 9.91421H18.9167C19.0369 9.91238 19.1568 9.92793 19.2725 9.9604C19.3133 9.97127 19.3514 9.9904 19.3844 10.0166C19.4175 10.0428 19.4448 10.0755 19.4647 10.1128C19.4846 10.15 19.4966 10.1909 19.5001 10.2329C19.5035 10.275 19.4982 10.3173 19.4846 10.3572C19.3671 10.7865 19.1647 11.1878 18.8894 11.5375C18.4788 12.1191 18.0478 12.6853 17.627 13.2583C17.5734 13.3313 17.5248 13.4079 17.4816 13.4875C17.3242 13.7732 17.3362 13.9322 17.5637 14.1717C17.9297 14.5497 18.3215 14.9021 18.6738 15.2887C18.9333 15.5713 19.168 15.8757 19.3751 16.1987C19.6351 16.6058 19.4761 16.9889 18.9954 17.0574V17.0574Z" fill="#FFF4E6"/>
</g>
<defs>
<clipPath id="clip0_401_40392">
<rect width="26" height="26" fill="white"/>
</clipPath>
</defs>
</svg>
